<svg width="20" height="10" viewBox="0 0 20 10" fill="none" xmlns="http://www.w3.org/2000/svg">
<path d="M19.5922 7.55153C19.5066 7.60038 19.4121 7.63186 19.3143 7.64416C19.2164 7.65646 19.1171 7.64934 19.022 7.62322C18.9269 7.5971 18.8379 7.55248 18.7601 7.49192C18.6823 7.43135 18.6172 7.35604 18.5685 7.27028L16.7872 4.15778C15.7517 4.85798 14.6093 5.38546 13.4047 5.71966L13.955 9.02153C13.9713 9.11873 13.9682 9.21819 13.946 9.3142C13.9238 9.41021 13.8828 9.50091 13.8256 9.58109C13.7683 9.66128 13.6957 9.72939 13.6121 9.78153C13.5285 9.83367 13.4354 9.86882 13.3382 9.88497C13.2982 9.89151 13.2578 9.89496 13.2172 9.89528C13.0398 9.89501 12.8682 9.83185 12.733 9.71702C12.5977 9.60219 12.5075 9.44313 12.4785 9.26809L11.9376 6.02622C10.7968 6.18497 9.63955 6.18497 8.4988 6.02622L7.95786 9.26809C7.92876 9.44344 7.83832 9.60276 7.70267 9.71763C7.56702 9.8325 7.39499 9.89546 7.21724 9.89528C7.17578 9.89511 7.1344 9.89166 7.09349 9.88497C6.99627 9.86882 6.90318 9.83367 6.81956 9.78153C6.73593 9.72939 6.6634 9.66128 6.60611 9.58109C6.54882 9.50091 6.50789 9.41021 6.48567 9.3142C6.46345 9.21819 6.46037 9.11873 6.47661 9.02153L7.02974 5.71966C5.82564 5.3844 4.68393 4.85597 3.64911 4.15497L1.87349 7.27028C1.77403 7.44358 1.6098 7.57028 1.41694 7.6225C1.22407 7.67471 1.01835 7.64817 0.84505 7.54872C0.671748 7.44926 0.545052 7.28504 0.492835 7.09217C0.440618 6.8993 0.467156 6.69358 0.566612 6.52028L2.44161 3.23903C1.78302 2.67004 1.17741 2.04247 0.632237 1.36403C0.564249 1.28812 0.512443 1.19915 0.479983 1.10255C0.447523 1.00595 0.435089 0.903752 0.443441 0.802189C0.451792 0.700625 0.480754 0.60183 0.528558 0.511832C0.576362 0.421833 0.642006 0.342521 0.721481 0.278736C0.800957 0.214951 0.892598 0.168032 0.99081 0.140843C1.08902 0.113653 1.19175 0.106763 1.29271 0.120594C1.39367 0.134425 1.49076 0.168686 1.57804 0.221286C1.66532 0.273886 1.74097 0.343722 1.80036 0.42653C3.35661 2.35216 6.07911 4.64528 10.2172 4.64528C14.3554 4.64528 17.0779 2.34934 18.6341 0.42653C18.6928 0.342027 18.7683 0.27051 18.8558 0.216429C18.9434 0.162348 19.0411 0.126859 19.143 0.112172C19.2448 0.0974841 19.3486 0.103911 19.4479 0.131054C19.5471 0.158196 19.6397 0.205473 19.7199 0.269943C19.8001 0.334413 19.8662 0.414696 19.914 0.505799C19.9619 0.596902 19.9905 0.696874 19.998 0.799497C20.0056 0.902121 19.9919 1.0052 19.9579 1.10232C19.9239 1.19944 19.8703 1.28852 19.8004 1.36403C19.2552 2.04247 18.6496 2.67004 17.991 3.23903L19.866 6.52028C19.9163 6.60581 19.9492 6.70049 19.9627 6.79881C19.9761 6.89714 19.97 6.99716 19.9445 7.09308C19.919 7.189 19.8748 7.27892 19.8143 7.35761C19.7539 7.43631 19.6784 7.50222 19.5922 7.55153Z" fill="#3C4852"/>
</svg>
