<svg width="23" height="16" viewBox="0 0 23 16" fill="none" xmlns="http://www.w3.org/2000/svg">
<path id="Vector" d="M22.9353 7.69625C22.9025 7.62219 22.1084 5.86062 20.3431 4.09531C17.9909 1.74312 15.02 0.5 11.75 0.5C8.47999 0.5 5.50905 1.74312 3.15687 4.09531C1.39155 5.86062 0.593741 7.625 0.564679 7.69625C0.522035 7.79217 0.5 7.89597 0.5 8.00094C0.5 8.10591 0.522035 8.20971 0.564679 8.30562C0.597491 8.37969 1.39155 10.1403 3.15687 11.9056C5.50905 14.2569 8.47999 15.5 11.75 15.5C15.02 15.5 17.9909 14.2569 20.3431 11.9056C22.1084 10.1403 22.9025 8.37969 22.9353 8.30562C22.9779 8.20971 23 8.10591 23 8.00094C23 7.89597 22.9779 7.79217 22.9353 7.69625ZM11.75 14C8.86437 14 6.34343 12.9509 4.25655 10.8828C3.40028 10.0313 2.67179 9.06027 2.09374 8C2.67164 6.93963 3.40014 5.9686 4.25655 5.11719C6.34343 3.04906 8.86437 2 11.75 2C14.6356 2 17.1566 3.04906 19.2434 5.11719C20.1014 5.9684 20.8315 6.93942 21.4109 8C20.735 9.26188 17.7903 14 11.75 14ZM11.75 3.5C10.86 3.5 9.98995 3.76392 9.24993 4.25839C8.5099 4.75285 7.93313 5.45566 7.59253 6.27792C7.25194 7.10019 7.16282 8.00499 7.33646 8.87791C7.51009 9.75082 7.93867 10.5526 8.56801 11.182C9.19735 11.8113 9.99917 12.2399 10.8721 12.4135C11.745 12.5872 12.6498 12.4981 13.4721 12.1575C14.2943 11.8169 14.9971 11.2401 15.4916 10.5001C15.9861 9.76005 16.25 8.89002 16.25 8C16.2488 6.80691 15.7742 5.66303 14.9306 4.81939C14.087 3.97575 12.9431 3.50124 11.75 3.5ZM11.75 11C11.1566 11 10.5766 10.8241 10.0833 10.4944C9.58993 10.1648 9.20542 9.69623 8.97835 9.14805C8.75129 8.59987 8.69188 7.99667 8.80764 7.41473C8.92339 6.83279 9.20911 6.29824 9.62867 5.87868C10.0482 5.45912 10.5828 5.1734 11.1647 5.05764C11.7467 4.94189 12.3499 5.0013 12.898 5.22836C13.4462 5.45542 13.9148 5.83994 14.2444 6.33329C14.574 6.82664 14.75 7.40666 14.75 8C14.75 8.79565 14.4339 9.55871 13.8713 10.1213C13.3087 10.6839 12.5456 11 11.75 11Z" fill="#3C4852"/>
</svg>
